<svg width="250" height="250" viewBox="0 0 250 250" fill="none" xmlns="http://www.w3.org/2000/svg">
<g clip-path="url(#clip0_203_2)">
<rect width="250" height="250" rx="5" fill="#10171E"/>
<g filter="url(#filter0_dd_203_2)">
<path d="M57.6923 61.6923C57.6923 59.4832 59.4832 57.6923 61.6923 57.6923H86.4615C87.5661 57.6923 88.4615 56.7969 88.4615 55.6923V0H91.3462V20.1154C91.3462 21.22 92.2416 22.1154 93.3462 22.1154H107.692V25H93.3462C92.2416 25 91.3462 25.8954 91.3462 27V55.6923C91.3462 56.7969 92.2416 57.6923 93.3462 57.6923H107.615C108.72 57.6923 109.615 56.7969 109.615 55.6923V26C109.615 25.4477 109.168 25 108.615 25H107.692V22.1154H110.5C111.605 22.1154 112.5 23.0108 112.5 24.1154V55.6923C112.5 56.7969 113.395 57.6923 114.5 57.6923H188.308C190.517 57.6923 192.308 59.4832 192.308 61.6923V74.9231C192.308 76.0276 193.203 76.9231 194.308 76.9231H250V79.8077H235.654C234.549 79.8077 233.654 80.7031 233.654 81.8077V125.962H230.769V81.8077C230.769 80.7031 229.874 79.8077 228.769 79.8077H194.308C193.203 79.8077 192.308 80.7031 192.308 81.8077V126.846C192.308 127.951 193.203 128.846 194.308 128.846H228.769C229.874 128.846 230.769 127.951 230.769 126.846V125.962H233.654V126.846C233.654 127.951 234.549 128.846 235.654 128.846H250V131.731H226.038C224.934 131.731 224.038 132.626 224.038 133.731V163.462H221.154V133.731C221.154 132.626 220.258 131.731 219.154 131.731H194.308C193.203 131.731 192.308 132.626 192.308 133.731V163.385C192.308 164.489 193.203 165.385 194.308 165.385H220.154C220.706 165.385 221.154 164.937 221.154 164.385V163.462H224.038V166.269C224.038 167.374 223.143 168.269 222.038 168.269H194.308C193.203 168.269 192.308 169.165 192.308 170.269V188.308C192.308 190.517 190.517 192.308 188.308 192.308H168.313C167.222 192.308 166.332 193.183 166.313 194.274L165.385 250H163.462V238.538C163.462 237.434 162.566 236.538 161.462 236.538H128.846V233.654H161.462C162.566 233.654 163.462 232.758 163.462 231.654V194.308C163.462 193.203 162.566 192.308 161.462 192.308H126.038C124.934 192.308 124.038 193.203 124.038 194.308V232.654C124.038 233.206 124.486 233.654 125.038 233.654H128.846V236.538H124.038H123.154C122.049 236.538 121.154 235.643 121.154 234.538V218.346C121.154 217.242 120.258 216.346 119.154 216.346H117.308V213.462H119.154C120.258 213.462 121.154 212.566 121.154 211.462V194.308C121.154 193.203 120.258 192.308 119.154 192.308H104.885C103.78 192.308 102.885 193.203 102.885 194.308V211.462C102.885 212.566 103.78 213.462 104.885 213.462H117.308V216.346H104.885C103.78 216.346 102.885 217.242 102.885 218.346V250H100V194.308C100 193.203 99.1046 192.308 98 192.308H61.6923C59.4832 192.308 57.6923 190.517 57.6923 188.308V112.577C57.6923 111.472 56.7969 110.577 55.6923 110.577H0V107.692H55.6923C56.7969 107.692 57.6923 106.797 57.6923 105.692V61.6923Z" fill="url(#paint0_linear_203_2)"/>
</g>
</g>
<defs>
<filter id="filter0_dd_203_2" x="-20" y="-20" width="298" height="298" filterUnits="userSpaceOnUse" color-interpolation-filters="sRGB">
<feFlood flood-opacity="0" result="BackgroundImageFix"/>
<feColorMatrix in="SourceAlpha" type="matrix" values="0 0 0 0 0 0 0 0 0 0 0 0 0 0 0 0 0 0 127 0" result="hardAlpha"/>
<feOffset dx="8" dy="8"/>
<feGaussianBlur stdDeviation="10"/>
<feComposite in2="hardAlpha" operator="out"/>
<feColorMatrix type="matrix" values="0 0 0 0 0 0 0 0 0 0 0 0 0 0 0 0 0 0 0.2 0"/>
<feBlend mode="normal" in2="BackgroundImageFix" result="effect1_dropShadow_203_2"/>
<feColorMatrix in="SourceAlpha" type="matrix" values="0 0 0 0 0 0 0 0 0 0 0 0 0 0 0 0 0 0 127 0" result="hardAlpha"/>
<feOffset/>
<feGaussianBlur stdDeviation="10"/>
<feComposite in2="hardAlpha" operator="out"/>
<feColorMatrix type="matrix" values="0 0 0 0 0.937255 0 0 0 0 0.129412 0 0 0 0 0.321569 0 0 0 0.35 0"/>
<feBlend mode="normal" in2="effect1_dropShadow_203_2" result="effect2_dropShadow_203_2"/>
<feBlend mode="normal" in="SourceGraphic" in2="effect2_dropShadow_203_2" result="shape"/>
</filter>
<linearGradient id="paint0_linear_203_2" x1="57.6923" y1="57.6923" x2="192.308" y2="192.308" gradientUnits="userSpaceOnUse">
<stop stop-color="#EF2152"/>
<stop offset="0.0001" stop-color="#EF2152"/>
<stop offset="1" stop-color="#8416D9"/>
</linearGradient>
<clipPath id="clip0_203_2">
<rect width="250" height="250" rx="5" fill="white"/>
</clipPath>
</defs>
</svg>
