<svg width="468" height="113" viewBox="0 0 468 113" fill="none" xmlns="http://www.w3.org/2000/svg">
<g clip-path="url(#clip0_203_7)">
<rect y="3" width="100" height="100" rx="5" fill="#10171E"/>
<g filter="url(#filter0_dd_203_7)">
<path d="M23.0769 30.0769C23.0769 27.8678 24.8678 26.0769 27.0769 26.0769H33.3846C34.4892 26.0769 35.3846 25.1815 35.3846 24.0769V3H36.5385V9.84616C36.5385 10.9507 37.4339 11.8462 38.5385 11.8462H43.0769V13H38.5385C37.4339 13 36.5385 13.8954 36.5385 15V24.0769C36.5385 25.1815 37.4339 26.0769 38.5385 26.0769H41.8462C42.9507 26.0769 43.8462 25.1815 43.8462 24.0769V13.7692C43.8462 13.3444 43.5018 13 43.0769 13V13V11.8462V11.8462C44.139 11.8462 45 12.7071 45 13.7692V24.0769C45 25.1815 45.8954 26.0769 47 26.0769H72.9231C75.1322 26.0769 76.9231 27.8678 76.9231 30.0769V31.7692C76.9231 32.8738 77.8185 33.7692 78.9231 33.7692H100V34.9231H95.4615C94.357 34.9231 93.4615 35.8185 93.4615 36.9231V53.3846H92.3077V36.9231C92.3077 35.8185 91.4123 34.9231 90.3077 34.9231H78.9231C77.8185 34.9231 76.9231 35.8185 76.9231 36.9231V52.5385C76.9231 53.643 77.8185 54.5385 78.9231 54.5385H91.1538C91.7911 54.5385 92.3077 54.0219 92.3077 53.3846V53.3846H93.4615V53.3846C93.4615 54.0219 93.9781 54.5385 94.6154 54.5385H100V55.6923H91.6154C90.5108 55.6923 89.6154 56.5877 89.6154 57.6923V68.3846H88.4615V57.6923C88.4615 56.5877 87.5661 55.6923 86.4615 55.6923H78.9231C77.8185 55.6923 76.9231 56.5877 76.9231 57.6923V67.1539C76.9231 68.2584 77.8185 69.1539 78.9231 69.1539H87.6923C88.1171 69.1539 88.4615 68.8095 88.4615 68.3846V68.3846H89.6154V68.3846C89.6154 69.4467 88.7544 70.3077 87.6923 70.3077H78.9231C77.8185 70.3077 76.9231 71.2031 76.9231 72.3077V75.9231C76.9231 78.1322 75.1322 79.9231 72.9231 79.9231H68.5054C67.4138 79.9231 66.5239 80.7983 66.5057 81.8898L66.1539 103H65.3846V99.6154C65.3846 98.5108 64.4892 97.6154 63.3846 97.6154H51.5385V96.4615H63.3846C64.4892 96.4615 65.3846 95.5661 65.3846 94.4615V81.9231C65.3846 80.8185 64.4892 79.9231 63.3846 79.9231H51.6154C50.5108 79.9231 49.6154 80.8185 49.6154 81.9231V95.4615C49.6154 96.0138 50.0631 96.4615 50.6154 96.4615H51.5385V97.6154H49.6154V97.6154C48.9781 97.6154 48.4615 97.0988 48.4615 96.4615V91.0769C48.4615 90.2273 47.7727 89.5385 46.9231 89.5385V89.5385V88.3846V88.3846C47.7727 88.3846 48.4615 87.6958 48.4615 86.8462V81.9231C48.4615 80.8185 47.5661 79.9231 46.4615 79.9231H43.1538C42.0493 79.9231 41.1538 80.8185 41.1538 81.9231V86.3846C41.1538 87.4892 42.0493 88.3846 43.1538 88.3846H46.9231V89.5385H43.1538C42.0493 89.5385 41.1538 90.4339 41.1538 91.5385V103H40V81.9231C40 80.8185 39.1046 79.9231 38 79.9231H27.0769C24.8678 79.9231 23.0769 78.1322 23.0769 75.9231V49.2308C23.0769 48.1262 22.1815 47.2308 21.0769 47.2308H0V46.0769H21.0769C22.1815 46.0769 23.0769 45.1815 23.0769 44.0769V30.0769Z" fill="url(#paint0_linear_203_7)"/>
</g>
</g>
<path d="M198.063 36.5984C197.765 33.5906 196.484 31.2539 194.222 29.5884C191.96 27.9229 188.89 27.0902 185.012 27.0902C182.377 27.0902 180.153 27.4631 178.338 28.2088C176.523 28.9297 175.131 29.9364 174.162 31.229C173.217 32.5217 172.745 33.9883 172.745 35.6289C172.695 36.9961 172.981 38.1893 173.603 39.2085C174.249 40.2276 175.131 41.1101 176.25 41.8558C177.369 42.5767 178.661 43.2106 180.128 43.7575C181.594 44.2795 183.161 44.7269 184.826 45.0998L191.687 46.7404C195.018 47.4861 198.075 48.4805 200.859 49.7234C203.643 50.9663 206.055 52.495 208.093 54.3097C210.131 56.1243 211.71 58.2621 212.828 60.723C213.972 63.1839 214.556 66.0053 214.581 69.1871C214.556 73.8604 213.363 77.9123 211.001 81.3427C208.665 84.7482 205.284 87.3956 200.859 89.2848C196.46 91.1491 191.152 92.0813 184.938 92.0813C178.773 92.0813 173.404 91.1367 168.83 89.2475C164.281 87.3583 160.726 84.5618 158.166 80.858C155.63 77.1293 154.3 72.5181 154.176 67.0245H169.799C169.973 69.5849 170.707 71.7227 171.999 73.4379C173.317 75.1282 175.069 76.4084 177.257 77.2784C179.469 78.1236 181.967 78.5462 184.751 78.5462C187.486 78.5462 189.86 78.1484 191.873 77.353C193.912 76.5575 195.49 75.4513 196.609 74.0344C197.727 72.6175 198.287 70.9893 198.287 69.1499C198.287 67.4347 197.777 65.9929 196.758 64.8246C195.763 63.6562 194.297 62.6619 192.358 61.8416C190.444 61.0213 188.095 60.2756 185.311 59.6044L176.996 57.5163C170.558 55.9503 165.474 53.5018 161.745 50.1708C158.017 46.8398 156.165 42.353 156.19 36.7102C156.165 32.0866 157.395 28.0472 159.881 24.592C162.392 21.1367 165.835 18.4396 170.21 16.5007C174.585 14.5618 179.556 13.5923 185.124 13.5923C190.792 13.5923 195.739 14.5618 199.964 16.5007C204.215 18.4396 207.521 21.1367 209.883 24.592C212.244 28.0472 213.462 32.0494 213.537 36.5984H198.063ZM234.949 112.477C232.935 112.477 231.046 112.316 229.281 111.993C227.541 111.694 226.1 111.309 224.956 110.837L228.536 98.9794C230.4 99.5511 232.078 99.8619 233.569 99.9116C235.086 99.9613 236.391 99.6133 237.484 98.8675C238.603 98.1218 239.51 96.854 240.206 95.0643L241.139 92.6406L220.593 33.7273H237.298L249.155 75.7869H249.752L261.721 33.7273H278.537L256.277 97.1896C255.208 100.272 253.754 102.957 251.915 105.244C250.1 107.555 247.801 109.333 245.016 110.576C242.232 111.843 238.877 112.477 234.949 112.477ZM286.666 91V33.7273H302.065V43.7202H302.662C303.706 40.1655 305.459 37.4808 307.919 35.6662C310.38 33.8267 313.214 32.907 316.421 32.907C317.216 32.907 318.074 32.9567 318.994 33.0561C319.913 33.1555 320.721 33.2923 321.417 33.4663V47.5607C320.672 47.337 319.64 47.1381 318.323 46.9641C317.005 46.7901 315.799 46.7031 314.706 46.7031C312.369 46.7031 310.281 47.2127 308.441 48.2319C306.627 49.2262 305.185 50.6183 304.116 52.408C303.072 54.1978 302.55 56.261 302.55 58.5977V91H286.666Z" fill="url(#paint1_linear_203_7)"/>
<path d="M356.402 91H331.681V14.6364H357.185C364.667 14.6364 371.093 16.1651 376.462 19.2227C381.832 22.2553 385.945 26.6179 388.804 32.3104C391.688 37.978 393.129 44.7766 393.129 52.7063C393.129 60.6609 391.675 67.4968 388.767 73.2141C385.883 78.9315 381.707 83.3313 376.238 86.4137C370.77 89.4712 364.157 91 356.402 91ZM343.202 80.9325H355.768C361.585 80.9325 366.42 79.8388 370.273 77.6513C374.126 75.4389 377.009 72.2447 378.923 68.0685C380.837 63.8675 381.794 58.7468 381.794 52.7063C381.794 46.7156 380.837 41.6321 378.923 37.456C377.034 33.2798 374.213 30.1104 370.459 27.9478C366.705 25.7852 362.045 24.7038 356.476 24.7038H343.202V80.9325ZM407.457 91V14.6364H435.422C440.841 14.6364 445.328 15.5312 448.883 17.321C452.437 19.0859 455.097 21.4847 456.862 24.5174C458.627 27.5252 459.51 30.9183 459.51 34.6967C459.51 37.8785 458.925 40.5632 457.757 42.7507C456.589 44.9133 455.023 46.6534 453.059 47.9709C451.12 49.2635 448.982 50.2081 446.646 50.8047V51.5504C449.181 51.6747 451.654 52.495 454.066 54.0114C456.502 55.5028 458.515 57.6282 460.106 60.3874C461.697 63.1467 462.492 66.5025 462.492 70.4549C462.492 74.3576 461.573 77.8626 459.733 80.9698C457.919 84.0522 455.11 86.5007 451.306 88.3153C447.503 90.1051 442.643 91 436.727 91H407.457ZM418.979 81.119H435.609C441.127 81.119 445.079 80.0501 447.466 77.9123C449.852 75.7745 451.045 73.1023 451.045 69.8956C451.045 67.4844 450.436 65.272 449.218 63.2585C448 61.245 446.26 59.6417 443.998 58.4485C441.761 57.2553 439.101 56.6587 436.019 56.6587H418.979V81.119ZM418.979 47.6726H434.415C437.001 47.6726 439.325 47.1754 441.388 46.1811C443.476 45.1868 445.129 43.7947 446.347 42.005C447.59 40.1903 448.212 38.0526 448.212 35.5916C448.212 32.4347 447.105 29.7873 444.893 27.6495C442.681 25.5117 439.288 24.4428 434.714 24.4428H418.979V47.6726Z" fill="#F2F2F2"/>
<defs>
<filter id="filter0_dd_203_7" x="-20" y="-17" width="148" height="148" filterUnits="userSpaceOnUse" color-interpolation-filters="sRGB">
<feFlood flood-opacity="0" result="BackgroundImageFix"/>
<feColorMatrix in="SourceAlpha" type="matrix" values="0 0 0 0 0 0 0 0 0 0 0 0 0 0 0 0 0 0 127 0" result="hardAlpha"/>
<feOffset dx="8" dy="8"/>
<feGaussianBlur stdDeviation="10"/>
<feComposite in2="hardAlpha" operator="out"/>
<feColorMatrix type="matrix" values="0 0 0 0 0 0 0 0 0 0 0 0 0 0 0 0 0 0 0.2 0"/>
<feBlend mode="normal" in2="BackgroundImageFix" result="effect1_dropShadow_203_7"/>
<feColorMatrix in="SourceAlpha" type="matrix" values="0 0 0 0 0 0 0 0 0 0 0 0 0 0 0 0 0 0 127 0" result="hardAlpha"/>
<feOffset/>
<feGaussianBlur stdDeviation="10"/>
<feComposite in2="hardAlpha" operator="out"/>
<feColorMatrix type="matrix" values="0 0 0 0 0.937255 0 0 0 0 0.129412 0 0 0 0 0.321569 0 0 0 0.35 0"/>
<feBlend mode="normal" in2="effect1_dropShadow_203_7" result="effect2_dropShadow_203_7"/>
<feBlend mode="normal" in="SourceGraphic" in2="effect2_dropShadow_203_7" result="shape"/>
</filter>
<linearGradient id="paint0_linear_203_7" x1="23.0769" y1="26.0769" x2="76.923" y2="79.9231" gradientUnits="userSpaceOnUse">
<stop stop-color="#EF2152"/>
<stop offset="0.0001" stop-color="#EF2152"/>
<stop offset="1" stop-color="#8416D9"/>
</linearGradient>
<linearGradient id="paint1_linear_203_7" x1="150" y1="0" x2="321.031" y2="107.99" gradientUnits="userSpaceOnUse">
<stop stop-color="#EF2152"/>
<stop offset="1" stop-color="#8416D9"/>
</linearGradient>
<clipPath id="clip0_203_7">
<rect y="3" width="100" height="100" rx="5" fill="white"/>
</clipPath>
</defs>
</svg>
